<mxfile host="app.diagrams.net" modified="2024-03-20T19:40:43.106Z" agent="Mozilla/5.0 (Windows NT 10.0; Win64; x64) AppleWebKit/537.36 (KHTML, like Gecko) Chrome/122.0.0.0 Safari/537.36" etag="vmbX9RjR3MF16u4ZVB_m" version="24.0.7" type="device">
  <diagram name="Página-1" id="gD0SdFFuKxlGOz18Ij_6">
    <mxGraphModel dx="880" dy="468" grid="1" gridSize="10" guides="1" tooltips="1" connect="1" arrows="1" fold="1" page="1" pageScale="1" pageWidth="827" pageHeight="1169" math="0" shadow="0">
      <root>
        <mxCell id="0" />
        <mxCell id="1" parent="0" />
        <mxCell id="uq3qq11ePx6Wr74jz8nW-1" value="" style="ellipse;html=1;shape=startState;fillColor=#000000;strokeColor=#ff0000;" vertex="1" parent="1">
          <mxGeometry x="245" y="30" width="30" height="30" as="geometry" />
        </mxCell>
        <mxCell id="uq3qq11ePx6Wr74jz8nW-2" value="" style="edgeStyle=orthogonalEdgeStyle;html=1;verticalAlign=bottom;endArrow=open;endSize=8;strokeColor=#ff0000;rounded=0;entryX=0.5;entryY=0;entryDx=0;entryDy=0;" edge="1" source="uq3qq11ePx6Wr74jz8nW-1" parent="1" target="uq3qq11ePx6Wr74jz8nW-3">
          <mxGeometry relative="1" as="geometry">
            <mxPoint x="220" y="100" as="targetPoint" />
          </mxGeometry>
        </mxCell>
        <mxCell id="uq3qq11ePx6Wr74jz8nW-8" style="edgeStyle=orthogonalEdgeStyle;rounded=0;orthogonalLoop=1;jettySize=auto;html=1;" edge="1" parent="1" source="uq3qq11ePx6Wr74jz8nW-3">
          <mxGeometry relative="1" as="geometry">
            <mxPoint x="260" y="180" as="targetPoint" />
          </mxGeometry>
        </mxCell>
        <mxCell id="uq3qq11ePx6Wr74jz8nW-3" value="Cadastro Usuários" style="rounded=1;whiteSpace=wrap;html=1;arcSize=40;fontColor=#000000;fillColor=#ffffc0;strokeColor=#ff0000;" vertex="1" parent="1">
          <mxGeometry x="200" y="100" width="120" height="40" as="geometry" />
        </mxCell>
        <mxCell id="uq3qq11ePx6Wr74jz8nW-9" style="edgeStyle=orthogonalEdgeStyle;rounded=0;orthogonalLoop=1;jettySize=auto;html=1;" edge="1" parent="1" source="uq3qq11ePx6Wr74jz8nW-5">
          <mxGeometry relative="1" as="geometry">
            <mxPoint x="370" y="215" as="targetPoint" />
          </mxGeometry>
        </mxCell>
        <mxCell id="uq3qq11ePx6Wr74jz8nW-11" style="edgeStyle=orthogonalEdgeStyle;rounded=0;orthogonalLoop=1;jettySize=auto;html=1;" edge="1" parent="1" source="uq3qq11ePx6Wr74jz8nW-5">
          <mxGeometry relative="1" as="geometry">
            <mxPoint x="160" y="215" as="targetPoint" />
          </mxGeometry>
        </mxCell>
        <mxCell id="uq3qq11ePx6Wr74jz8nW-5" value="Coord, Prof ou aluno?" style="rhombus;whiteSpace=wrap;html=1;fontColor=#000000;fillColor=#ffffc0;strokeColor=#ff0000;" vertex="1" parent="1">
          <mxGeometry x="205" y="180" width="110" height="70" as="geometry" />
        </mxCell>
        <mxCell id="uq3qq11ePx6Wr74jz8nW-7" value="professor" style="edgeStyle=orthogonalEdgeStyle;html=1;align=left;verticalAlign=top;endArrow=open;endSize=8;strokeColor=#ff0000;rounded=0;" edge="1" source="uq3qq11ePx6Wr74jz8nW-5" parent="1">
          <mxGeometry x="-1" relative="1" as="geometry">
            <mxPoint x="260" y="300" as="targetPoint" />
          </mxGeometry>
        </mxCell>
        <mxCell id="uq3qq11ePx6Wr74jz8nW-10" value="aluno" style="text;html=1;align=center;verticalAlign=middle;resizable=0;points=[];autosize=1;strokeColor=none;fillColor=none;" vertex="1" parent="1">
          <mxGeometry x="295" y="178" width="50" height="30" as="geometry" />
        </mxCell>
        <mxCell id="uq3qq11ePx6Wr74jz8nW-12" value="coordenador" style="text;html=1;align=center;verticalAlign=middle;resizable=0;points=[];autosize=1;strokeColor=none;fillColor=none;" vertex="1" parent="1">
          <mxGeometry x="135" y="178" width="90" height="30" as="geometry" />
        </mxCell>
        <mxCell id="uq3qq11ePx6Wr74jz8nW-13" value="cadastrar coordenador" style="rounded=1;whiteSpace=wrap;html=1;arcSize=40;fontColor=#000000;fillColor=#ffffc0;strokeColor=#ff0000;" vertex="1" parent="1">
          <mxGeometry x="40" y="200" width="120" height="40" as="geometry" />
        </mxCell>
        <mxCell id="uq3qq11ePx6Wr74jz8nW-14" value="" style="edgeStyle=orthogonalEdgeStyle;html=1;verticalAlign=bottom;endArrow=open;endSize=8;strokeColor=#ff0000;rounded=0;" edge="1" source="uq3qq11ePx6Wr74jz8nW-13" parent="1">
          <mxGeometry relative="1" as="geometry">
            <mxPoint x="100" y="490" as="targetPoint" />
          </mxGeometry>
        </mxCell>
        <mxCell id="uq3qq11ePx6Wr74jz8nW-26" style="edgeStyle=orthogonalEdgeStyle;rounded=0;orthogonalLoop=1;jettySize=auto;html=1;" edge="1" parent="1" source="uq3qq11ePx6Wr74jz8nW-15" target="uq3qq11ePx6Wr74jz8nW-24">
          <mxGeometry relative="1" as="geometry" />
        </mxCell>
        <mxCell id="uq3qq11ePx6Wr74jz8nW-15" value="cadastrar professor" style="rounded=1;whiteSpace=wrap;html=1;arcSize=40;fontColor=#000000;fillColor=#ffffc0;strokeColor=#ff0000;" vertex="1" parent="1">
          <mxGeometry x="200" y="300" width="120" height="40" as="geometry" />
        </mxCell>
        <mxCell id="uq3qq11ePx6Wr74jz8nW-21" style="edgeStyle=orthogonalEdgeStyle;rounded=0;orthogonalLoop=1;jettySize=auto;html=1;entryX=0;entryY=0.5;entryDx=0;entryDy=0;" edge="1" parent="1" source="uq3qq11ePx6Wr74jz8nW-17" target="uq3qq11ePx6Wr74jz8nW-19">
          <mxGeometry relative="1" as="geometry" />
        </mxCell>
        <mxCell id="uq3qq11ePx6Wr74jz8nW-17" value="cadastrar aluno" style="rounded=1;whiteSpace=wrap;html=1;arcSize=40;fontColor=#000000;fillColor=#ffffc0;strokeColor=#ff0000;" vertex="1" parent="1">
          <mxGeometry x="370" y="200" width="120" height="40" as="geometry" />
        </mxCell>
        <mxCell id="uq3qq11ePx6Wr74jz8nW-19" value="consultar notas e frequencia" style="rounded=1;whiteSpace=wrap;html=1;arcSize=40;fontColor=#000000;fillColor=#ffffc0;strokeColor=#ff0000;" vertex="1" parent="1">
          <mxGeometry x="530" y="200" width="120" height="40" as="geometry" />
        </mxCell>
        <mxCell id="uq3qq11ePx6Wr74jz8nW-22" value="" style="edgeStyle=none;orthogonalLoop=1;jettySize=auto;html=1;rounded=0;exitX=0.75;exitY=1;exitDx=0;exitDy=0;" edge="1" parent="1" source="uq3qq11ePx6Wr74jz8nW-19" target="uq3qq11ePx6Wr74jz8nW-23">
          <mxGeometry width="100" relative="1" as="geometry">
            <mxPoint x="570" y="250" as="sourcePoint" />
            <mxPoint x="620" y="430" as="targetPoint" />
            <Array as="points" />
          </mxGeometry>
        </mxCell>
        <mxCell id="uq3qq11ePx6Wr74jz8nW-23" value="" style="ellipse;html=1;shape=endState;fillColor=#000000;strokeColor=#ff0000;" vertex="1" parent="1">
          <mxGeometry x="605" y="415" width="30" height="30" as="geometry" />
        </mxCell>
        <mxCell id="uq3qq11ePx6Wr74jz8nW-27" style="edgeStyle=orthogonalEdgeStyle;rounded=0;orthogonalLoop=1;jettySize=auto;html=1;" edge="1" parent="1" source="uq3qq11ePx6Wr74jz8nW-24">
          <mxGeometry relative="1" as="geometry">
            <mxPoint x="580" y="320" as="targetPoint" />
          </mxGeometry>
        </mxCell>
        <mxCell id="uq3qq11ePx6Wr74jz8nW-32" style="edgeStyle=orthogonalEdgeStyle;rounded=0;orthogonalLoop=1;jettySize=auto;html=1;" edge="1" parent="1" source="uq3qq11ePx6Wr74jz8nW-24" target="uq3qq11ePx6Wr74jz8nW-30">
          <mxGeometry relative="1" as="geometry" />
        </mxCell>
        <mxCell id="uq3qq11ePx6Wr74jz8nW-24" value="cadastrar notas e frequencia" style="rounded=1;whiteSpace=wrap;html=1;arcSize=40;fontColor=#000000;fillColor=#ffffc0;strokeColor=#ff0000;" vertex="1" parent="1">
          <mxGeometry x="360" y="300" width="120" height="40" as="geometry" />
        </mxCell>
        <mxCell id="uq3qq11ePx6Wr74jz8nW-28" value="" style="edgeStyle=none;orthogonalLoop=1;jettySize=auto;html=1;rounded=0;entryX=0.35;entryY=1.175;entryDx=0;entryDy=0;entryPerimeter=0;" edge="1" parent="1" target="uq3qq11ePx6Wr74jz8nW-19">
          <mxGeometry width="100" relative="1" as="geometry">
            <mxPoint x="570" y="320" as="sourcePoint" />
            <mxPoint x="630" y="300" as="targetPoint" />
            <Array as="points" />
          </mxGeometry>
        </mxCell>
        <mxCell id="uq3qq11ePx6Wr74jz8nW-29" value="" style="edgeStyle=none;orthogonalLoop=1;jettySize=auto;html=1;rounded=0;" edge="1" parent="1">
          <mxGeometry width="100" relative="1" as="geometry">
            <mxPoint x="100" y="490" as="sourcePoint" />
            <mxPoint x="360" y="420" as="targetPoint" />
            <Array as="points" />
          </mxGeometry>
        </mxCell>
        <mxCell id="uq3qq11ePx6Wr74jz8nW-33" style="edgeStyle=orthogonalEdgeStyle;rounded=0;orthogonalLoop=1;jettySize=auto;html=1;entryX=0;entryY=0;entryDx=0;entryDy=0;" edge="1" parent="1" source="uq3qq11ePx6Wr74jz8nW-30" target="uq3qq11ePx6Wr74jz8nW-23">
          <mxGeometry relative="1" as="geometry" />
        </mxCell>
        <mxCell id="uq3qq11ePx6Wr74jz8nW-30" value="realizar aprovação aluno" style="rounded=1;whiteSpace=wrap;html=1;arcSize=40;fontColor=#000000;fillColor=#ffffc0;strokeColor=#ff0000;" vertex="1" parent="1">
          <mxGeometry x="360" y="400" width="120" height="40" as="geometry" />
        </mxCell>
      </root>
    </mxGraphModel>
  </diagram>
</mxfile>
